<svg width="193" height="30" viewBox="0 0 193 30" fill="none" xmlns="http://www.w3.org/2000/svg">
<path d="M0.16 0.999998H20.32V6.04H12.88V29H7.6V6.04H0.16V0.999998ZM25.7722 0.999998H43.4522V6.04H31.0522V12.44H42.9722V17.48H31.0522V23.96H43.9322V29H25.7722V0.999998ZM59.3044 24.76C60.3177 24.76 61.1444 24.6133 61.7844 24.32C62.451 24 62.9577 23.5867 63.3044 23.08C63.6777 22.5467 63.931 21.9467 64.0644 21.28C64.1977 20.5867 64.2644 19.88 64.2644 19.16V18.44H69.5444V19.16C69.5444 22.4933 68.6644 25.0667 66.9044 26.88C65.171 28.6667 62.6377 29.56 59.3044 29.56C56.1044 29.56 53.571 28.5867 51.7044 26.64C49.8377 24.6933 48.9044 21.8533 48.9044 18.12V11.88C48.9044 10.0933 49.1444 8.49333 49.6244 7.08C50.1044 5.64 50.7977 4.44 51.7044 3.48C52.611 2.49333 53.7044 1.74667 54.9844 1.24C56.2644 0.706665 57.7044 0.439998 59.3044 0.439998C60.9577 0.439998 62.4244 0.679998 63.7044 1.16C64.9844 1.64 66.051 2.33333 66.9044 3.24C67.7844 4.14667 68.4377 5.24 68.8644 6.52C69.3177 7.8 69.5444 9.24 69.5444 10.84V11.56H64.2644V10.84C64.2644 10.1733 64.1844 9.50667 64.0244 8.84C63.8644 8.17333 63.5977 7.57333 63.2244 7.04C62.851 6.50667 62.3444 6.08 61.7044 5.76C61.0644 5.41333 60.2644 5.24 59.3044 5.24C58.4244 5.24 57.6644 5.41333 57.0244 5.76C56.3844 6.08 55.851 6.53333 55.4244 7.12C54.9977 7.68 54.6777 8.34667 54.4644 9.12C54.2777 9.86667 54.1844 10.6533 54.1844 11.48V18.52C54.1844 19.4267 54.2777 20.2667 54.4644 21.04C54.651 21.7867 54.9444 22.44 55.3444 23C55.7444 23.56 56.2644 24 56.9044 24.32C57.571 24.6133 58.371 24.76 59.3044 24.76ZM73.9166 0.999998H79.1966V12.44H88.2366V0.999998H93.5166V29H88.2366V17.48H79.1966V29H73.9166V0.999998ZM112.009 26.36H112.729V0.999998H118.009V29H107.689L104.409 3.64H103.689V29H98.4088V0.999998H108.729L112.009 26.36ZM123.741 0.999998H141.421V6.04H129.021V12.44H140.941V17.48H129.021V23.96H141.901V29H123.741V0.999998ZM168.153 29H158.953L157.673 7.72V3.88H156.713V7.72L155.433 29H146.233L145.273 0.999998H150.073L150.713 22.28V25.88H151.673V22.28L152.953 0.999998H161.433L162.713 22.28V25.88H163.673V22.28L164.313 0.999998H169.113L168.153 29ZM186.485 9.56C186.485 8.44 186.045 7.46667 185.165 6.64C184.312 5.81333 183.099 5.4 181.525 5.4C180.192 5.4 179.139 5.68 178.365 6.24C177.592 6.77333 177.205 7.50667 177.205 8.44C177.205 8.92 177.299 9.36 177.485 9.76C177.672 10.1333 177.992 10.48 178.445 10.8C178.925 11.0933 179.539 11.36 180.285 11.6C181.059 11.84 182.032 12.0667 183.205 12.28C186.139 12.8133 188.379 13.7067 189.925 14.96C191.472 16.2133 192.245 18.0667 192.245 20.52V21C192.245 22.3067 192.005 23.4933 191.525 24.56C191.072 25.6 190.405 26.4933 189.525 27.24C188.645 27.9867 187.579 28.56 186.325 28.96C185.072 29.36 183.659 29.56 182.085 29.56C180.245 29.56 178.619 29.3067 177.205 28.8C175.819 28.2667 174.659 27.5467 173.725 26.64C172.792 25.7067 172.085 24.6267 171.605 23.4C171.125 22.1467 170.885 20.7867 170.885 19.32V18.12H176.165V19.08C176.165 20.76 176.645 22.1067 177.605 23.12C178.592 24.1067 180.112 24.6 182.165 24.6C183.765 24.6 184.952 24.2533 185.725 23.56C186.499 22.8667 186.885 22.04 186.885 21.08C186.885 20.6267 186.805 20.2 186.645 19.8C186.485 19.3733 186.205 19 185.805 18.68C185.405 18.3333 184.859 18.0267 184.165 17.76C183.472 17.4933 182.592 17.2667 181.525 17.08C180.112 16.84 178.819 16.5333 177.645 16.16C176.472 15.76 175.445 15.24 174.565 14.6C173.712 13.96 173.045 13.16 172.565 12.2C172.085 11.24 171.845 10.0667 171.845 8.68V8.44C171.845 7.29333 172.072 6.24 172.525 5.28C173.005 4.29333 173.659 3.44 174.485 2.72C175.339 2 176.352 1.44 177.525 1.04C178.725 0.639998 180.059 0.439998 181.525 0.439998C183.179 0.439998 184.645 0.679998 185.925 1.16C187.205 1.61333 188.272 2.24 189.125 3.04C190.005 3.84 190.659 4.76 191.085 5.8C191.539 6.84 191.765 7.93333 191.765 9.08V10.52H186.485V9.56Z" fill="white"/>
</svg>
