<svg width="16" height="16" viewBox="0 0 16 16" fill="none" xmlns="http://www.w3.org/2000/svg">
<path d="M2.37146 15.8867C1.92856 16.1824 1.33484 15.8649 1.33484 15.3324V2.68039C1.33484 1.20984 2.52556 0.0169807 3.99611 0.0143462L11.9943 4.32843e-06C13.4667 -0.00262048 14.6624 1.18887 14.6651 2.66128V15.3324C14.6651 15.8649 14.0714 16.1824 13.6285 15.8867L7.99996 12.1286L2.37146 15.8867ZM13.3321 2.66606L13.3228 2.50823C13.2446 1.8454 12.6803 1.33181 11.9966 1.33303L3.9985 1.34737C3.26322 1.34868 2.66786 1.94511 2.66786 2.68039V14.0859L7.62985 10.7728C7.85391 10.6232 8.146 10.6232 8.37007 10.7728L13.3321 14.0859V2.66606Z" fill="white"/>
</svg>
