<svg width="16" height="16" viewBox="0 0 16 16" fill="none" xmlns="http://www.w3.org/2000/svg">
<path d="M7.38843 2.34649C5.69278 0.650841 2.94954 0.642601 1.26122 2.33092C-0.427101 4.01924 -0.418861 6.76249 1.27679 8.45814L7.55368 14.735C7.81404 14.9954 8.23617 14.9954 8.49652 14.735L14.7408 8.49443C16.4252 6.80063 16.4199 4.06507 14.7239 2.36912C13.0252 0.670427 10.2807 0.662185 8.58936 2.35352L7.99299 2.95104L7.38843 2.34649ZM13.7953 7.55422L8.0251 13.3208L2.21964 7.51529C1.04344 6.3391 1.03773 4.44009 2.20406 3.27376C3.37039 2.10744 5.26939 2.11314 6.44559 3.28934L7.52477 4.36852C7.78958 4.63332 8.22049 4.62813 8.47883 4.35702L9.5322 3.29637C10.7016 2.12702 12.6018 2.13273 13.7811 3.31196C14.9576 4.48845 14.9612 6.38179 13.7953 7.55422Z" fill="white"/>
</svg>
