<svg width="10" height="10" viewBox="0 0 10 10" fill="none" xmlns="http://www.w3.org/2000/svg">
<path d="M5 10C7.76142 10 10 7.76142 10 5C10 2.23858 7.76142 0 5 0C2.23858 0 0 2.23858 0 5C0 7.76142 2.23858 10 5 10ZM4.25 7.25C4.25 6.83579 4.58579 6.5 5 6.5C5.41421 6.5 5.75 6.83579 5.75 7.25C5.75 7.66421 5.41421 8 5 8C4.58579 8 4.25 7.66421 4.25 7.25ZM4.50806 2.41012C4.55039 2.17688 4.75454 2 5 2C5.24546 2 5.44961 2.17688 5.49194 2.41012L5.5 2.5V5L5.49194 5.08988C5.44961 5.32312 5.24546 5.5 5 5.5C4.75454 5.5 4.55039 5.32312 4.50806 5.08988L4.5 5V2.5L4.50806 2.41012Z" fill="#DC626D"/>
</svg>
