<svg width="16" height="16" viewBox="0 0 16 16" fill="none" xmlns="http://www.w3.org/2000/svg">
<g clip-path="url(#clip0_26_6137)">
<path d="M16 2.85714C16 4.4351 14.7208 5.71429 13.1429 5.71429C12.2302 5.71429 11.4175 5.28639 10.8944 4.62029L5.61723 7.2589C5.68054 7.49525 5.71429 7.74368 5.71429 8C5.71429 8.25634 5.68053 8.5048 5.6172 8.74126L10.8944 11.3798C11.4175 10.7136 12.2302 10.2857 13.1429 10.2857C14.7208 10.2857 16 11.5649 16 13.1429C16 14.7208 14.7208 16 13.1429 16C11.5649 16 10.2857 14.7208 10.2857 13.1429C10.2857 12.8865 10.3194 12.6381 10.3827 12.4017L5.10554 9.76309C4.58247 10.4293 3.76977 10.8571 2.85714 10.8571C1.27919 10.8571 0 9.57794 0 8C0 6.42205 1.27919 5.14286 2.85714 5.14286C3.76982 5.14286 4.58255 5.57079 5.10562 6.23696L10.3827 3.59835C10.3194 3.36198 10.2857 3.1135 10.2857 2.85714C10.2857 1.27919 11.5649 0 13.1429 0C14.7208 0 16 1.27919 16 2.85714Z" fill="white"/>
</g>
<defs>
<clipPath id="clip0_26_6137">
<rect width="16" height="16" fill="white"/>
</clipPath>
</defs>
</svg>
