<svg width="16" height="16" viewBox="0 0 16 16" fill="none" xmlns="http://www.w3.org/2000/svg">
<g clip-path="url(#clip0_26_6135)">
<path d="M10.284 2.85887C10.284 1.27995 11.564 0 13.1429 0C14.7218 0 16.0017 1.27995 16.0017 2.85887C16.0017 4.43777 14.7218 5.71774 13.1429 5.71774C12.2286 5.71774 11.4145 5.28856 10.8912 4.62069L5.61545 7.25859C5.67879 7.49504 5.71258 7.74358 5.71258 8C5.71258 8.25634 5.67883 8.5048 5.61553 8.74114L10.8928 11.3798C11.4158 10.7136 12.2285 10.2857 13.1411 10.2857C14.7191 10.2857 15.9983 11.5649 15.9983 13.1429C15.9983 14.7208 14.7191 16 13.1411 16C11.5632 16 10.284 14.7208 10.284 13.1429C10.284 12.8865 10.3177 12.6381 10.381 12.4016L5.10391 9.76309C4.58084 10.4293 3.76811 10.8571 2.85543 10.8571C1.27748 10.8571 -0.00170898 9.57794 -0.00170898 8C-0.00170898 6.42205 1.27748 5.14286 2.85543 5.14286C3.76799 5.14286 4.58063 5.57069 5.10372 6.23671L10.3806 3.59829C10.3176 3.36243 10.284 3.11457 10.284 2.85887ZM13.1429 1.14286C12.1951 1.14286 11.4269 1.91114 11.4269 2.85887C11.4269 3.80659 12.1951 4.57488 13.1429 4.57488C14.0906 4.57488 14.8589 3.80659 14.8589 2.85887C14.8589 1.91114 14.0906 1.14286 13.1429 1.14286ZM13.1411 11.4286C12.1944 11.4286 11.4269 12.1961 11.4269 13.1429C11.4269 14.0896 12.1944 14.8571 13.1411 14.8571C14.0879 14.8571 14.8554 14.0896 14.8554 13.1429C14.8554 12.1961 14.0879 11.4286 13.1411 11.4286ZM1.14115 8C1.14115 8.94674 1.90866 9.71429 2.85543 9.71429C3.80221 9.71429 4.56972 8.94674 4.56972 8C4.56972 7.05322 3.80221 6.28571 2.85543 6.28571C1.90866 6.28571 1.14115 7.05322 1.14115 8Z" fill="white"/>
</g>
<defs>
<clipPath id="clip0_26_6135">
<rect width="16" height="16" fill="white"/>
</clipPath>
</defs>
</svg>
